<svg xmlns="http://www.w3.org/2000/svg" viewBox="0 0 512 512" width="512" height="512">
<defs>
<linearGradient id="bg" x1="0" y1="0" x2="0" y2="1">
<stop offset="0" stop-color="#667eea"/>
<stop offset="1" stop-color="#764ba2"/>
</linearGradient>
</defs>
<rect width="512" height="512" fill="url(#bg)"/>
<rect x="76.8" y="76.8" width="358.4" height="358.4" rx="25" fill="#cbd5e1"/>
<rect x="76.8" y="76.8" width="114.1" height="114.1" fill="#fde68a"/>
<text x="133.9" y="133.9" font-size="71" font-family="Inter, system-ui, sans-serif" font-weight="700" fill="#d97706" text-anchor="middle" dominant-baseline="central">3</text>
<rect x="198.9" y="76.8" width="114.1" height="114.1" fill="#fde68a"/>
<text x="256.0" y="133.9" font-size="71" font-family="Inter, system-ui, sans-serif" font-weight="700" fill="#d97706" text-anchor="middle" dominant-baseline="central">1</text>
<rect x="321.1" y="76.8" width="114.1" height="114.1" fill="#bfdbfe"/>
<text x="378.1" y="133.9" font-size="71" font-family="Inter, system-ui, sans-serif" font-weight="700" fill="#1d4ed8" text-anchor="middle" dominant-baseline="central">2</text>
<rect x="76.8" y="198.9" width="114.1" height="114.1" fill="#a7f3d0"/>
<text x="133.9" y="256.0" font-size="71" font-family="Inter, system-ui, sans-serif" font-weight="700" fill="#047857" text-anchor="middle" dominant-baseline="central">2</text>
<rect x="198.9" y="198.9" width="114.1" height="114.1" fill="#fbcfe8"/>
<text x="256.0" y="256.0" font-size="71" font-family="Inter, system-ui, sans-serif" font-weight="700" fill="#be185d" text-anchor="middle" dominant-baseline="central">3</text>
<rect x="321.1" y="198.9" width="114.1" height="114.1" fill="#bfdbfe"/>
<text x="378.1" y="256.0" font-size="71" font-family="Inter, system-ui, sans-serif" font-weight="700" fill="#1d4ed8" text-anchor="middle" dominant-baseline="central">1</text>
<rect x="76.8" y="321.1" width="114.1" height="114.1" fill="#a7f3d0"/>
<text x="133.9" y="378.1" font-size="71" font-family="Inter, system-ui, sans-serif" font-weight="700" fill="#047857" text-anchor="middle" dominant-baseline="central">1</text>
<rect x="198.9" y="321.1" width="114.1" height="114.1" fill="#ddd6fe"/>
<text x="256.0" y="378.1" font-size="71" font-family="Inter, system-ui, sans-serif" font-weight="700" fill="#6b21a8" text-anchor="middle" dominant-baseline="central">2</text>
<rect x="321.1" y="321.1" width="114.1" height="114.1" fill="#ddd6fe"/>
<text x="378.1" y="378.1" font-size="71" font-family="Inter, system-ui, sans-serif" font-weight="700" fill="#6b21a8" text-anchor="middle" dominant-baseline="central">3</text>
<rect x="76.8" y="186.9" width="114.1" height="16" fill="#475569"/>
<rect x="309.1" y="76.8" width="16" height="114.1" fill="#475569"/>
<rect x="198.9" y="186.9" width="114.1" height="16" fill="#475569"/>
<rect x="186.9" y="198.9" width="16" height="114.1" fill="#475569"/>
<rect x="309.1" y="198.9" width="16" height="114.1" fill="#475569"/>
<rect x="198.9" y="309.1" width="114.1" height="16" fill="#475569"/>
<rect x="321.1" y="309.1" width="114.1" height="16" fill="#475569"/>
<rect x="186.9" y="321.1" width="16" height="114.1" fill="#475569"/>
</svg>